<svg width="20" height="20" viewBox="0 0 20 20" fill="none" xmlns="http://www.w3.org/2000/svg">
<g clip-path="url(#clip0_39_7946)">
<path d="M9.99989 1.61816C6.92846 1.61816 4.44434 4.15053 4.44434 7.28159C4.44434 11.5292 9.99989 17.7994 9.99989 17.7994C9.99989 17.7994 15.5554 11.5292 15.5554 7.28159C15.5554 4.15053 13.0713 1.61816 9.99989 1.61816ZM9.99989 9.30425C9.47367 9.30425 8.969 9.09115 8.5969 8.71183C8.22481 8.33251 8.01576 7.81804 8.01576 7.28159C8.01576 6.74515 8.22481 6.23068 8.5969 5.85136C8.969 5.47204 9.47367 5.25894 9.99989 5.25894C10.5261 5.25894 11.0308 5.47204 11.4029 5.85136C11.775 6.23068 11.984 6.74515 11.984 7.28159C11.984 7.81804 11.775 8.33251 11.4029 8.71183C11.0308 9.09115 10.5261 9.30425 9.99989 9.30425Z" fill="#FF3A4A"/>
</g>
<defs>
<clipPath id="clip0_39_7946">
<rect width="19.0476" height="19.4175" fill="white" transform="translate(0.476074)"/>
</clipPath>
</defs>
</svg>
